<svg width="32" height="33" viewBox="0 0 32 33" fill="none" xmlns="http://www.w3.org/2000/svg">
<g filter="url(#filter0_d_16_30)">
<rect x="2" y="1" width="28" height="28" rx="4" stroke="#5297F4" stroke-width="2" shape-rendering="crispEdges"/>
</g>
<path d="M17.1111 25H12.6667V11.6667H17.1111V13.8889C18.0585 12.6836 19.4951 11.9651 21.0277 11.93C23.784 11.9453 26.008 14.1882 26 16.9444V25H21.5555V17.5C21.3778 16.2585 20.313 15.3373 19.0589 15.34C18.5103 15.3573 17.9925 15.5975 17.6249 16.0051C17.2573 16.4127 17.0718 16.9526 17.1111 17.5V25ZM10.4444 25H6V11.6667H10.4444V25ZM8.22222 9.44444C6.99492 9.44444 6 8.44952 6 7.22222C6 5.99492 6.99492 5 8.22222 5C9.44951 5 10.4444 5.99492 10.4444 7.22222C10.4444 7.81159 10.2103 8.37682 9.79356 8.79357C9.37682 9.21032 8.81159 9.44444 8.22222 9.44444Z" fill="#5099FB"/>
<defs>
<filter id="filter0_d_16_30" x="0" y="0" width="32" height="33" filterUnits="userSpaceOnUse" color-interpolation-filters="sRGB">
<feFlood flood-opacity="0" result="BackgroundImageFix"/>
<feColorMatrix in="SourceAlpha" type="matrix" values="0 0 0 0 0 0 0 0 0 0 0 0 0 0 0 0 0 0 127 0" result="hardAlpha"/>
<feOffset dy="2"/>
<feGaussianBlur stdDeviation="0.5"/>
<feComposite in2="hardAlpha" operator="out"/>
<feColorMatrix type="matrix" values="0 0 0 0 0 0 0 0 0 0 0 0 0 0 0 0 0 0 0.5 0"/>
<feBlend mode="normal" in2="BackgroundImageFix" result="effect1_dropShadow_16_30"/>
<feBlend mode="normal" in="SourceGraphic" in2="effect1_dropShadow_16_30" result="shape"/>
</filter>
</defs>
</svg>
