<svg width="32" height="33" viewBox="0 0 32 33" fill="none" xmlns="http://www.w3.org/2000/svg">
<g filter="url(#filter0_d_16_25)">
<rect x="2" y="1" width="28" height="28" rx="4" stroke="#5297F4" stroke-width="2" shape-rendering="crispEdges"/>
</g>
<path d="M15.9995 5C11.0955 4.99935 6.91504 8.64728 6.12988 13.6124C5.34471 18.5775 8.18666 23.3937 12.8394 24.983C13.3406 25.0755 13.52 24.7599 13.52 24.4886C13.52 24.2449 13.5119 23.5993 13.5089 22.741C10.7277 23.3578 10.1404 21.3655 10.1404 21.3655C9.95733 20.7456 9.56372 20.2135 9.03095 19.8657C8.12894 19.2294 9.1001 19.2438 9.1001 19.2438C9.74221 19.3341 10.3073 19.7243 10.6305 20.3005C10.9041 20.8107 11.3649 21.1876 11.9107 21.3477C12.4564 21.5077 13.0419 21.4375 13.537 21.1527C13.5835 20.6326 13.8091 20.1464 14.1734 19.7814C11.9545 19.5234 9.62127 18.6434 9.62127 14.7134C9.60895 13.697 9.97696 12.7143 10.6496 11.9677C10.3452 11.0829 10.3811 10.1124 10.7498 9.2538C10.7498 9.2538 11.5887 8.97728 13.4979 10.3034C15.1354 9.84285 16.8636 9.84285 18.5011 10.3034C20.4113 8.97625 21.2492 9.2538 21.2492 9.2538C21.6196 10.112 21.6555 11.0832 21.3494 11.9677C22.0245 12.7142 22.3922 13.6995 22.3757 14.7175C22.3757 18.6578 20.0405 19.5234 17.8135 19.7773C18.2939 20.2811 18.5403 20.9722 18.4901 21.675C18.4901 23.0463 18.478 24.1524 18.478 24.4886C18.478 24.763 18.6564 25.0817 19.1666 24.981C23.8174 23.389 26.6563 18.5725 25.8695 13.6087C25.0827 8.64488 20.9025 4.99885 15.9995 5Z" fill="#5099FB"/>
<defs>
<filter id="filter0_d_16_25" x="0" y="0" width="32" height="33" filterUnits="userSpaceOnUse" color-interpolation-filters="sRGB">
<feFlood flood-opacity="0" result="BackgroundImageFix"/>
<feColorMatrix in="SourceAlpha" type="matrix" values="0 0 0 0 0 0 0 0 0 0 0 0 0 0 0 0 0 0 127 0" result="hardAlpha"/>
<feOffset dy="2"/>
<feGaussianBlur stdDeviation="0.5"/>
<feComposite in2="hardAlpha" operator="out"/>
<feColorMatrix type="matrix" values="0 0 0 0 0 0 0 0 0 0 0 0 0 0 0 0 0 0 0.5 0"/>
<feBlend mode="normal" in2="BackgroundImageFix" result="effect1_dropShadow_16_25"/>
<feBlend mode="normal" in="SourceGraphic" in2="effect1_dropShadow_16_25" result="shape"/>
</filter>
</defs>
</svg>
